<?xml version="1.0" encoding="iso-8859-1"?>
<!-- Generator: Adobe Illustrator 19.0.0, SVG Export Plug-In . SVG Version: 6.00 Build 0)  -->
<svg version="1.1" id="Layer_1" xmlns="http://www.w3.org/2000/svg" xmlns:xlink="http://www.w3.org/1999/xlink" x="0px" y="0px"
	 viewBox="0 0 512 512" style="enable-background:new 0 0 512 512;" xml:space="preserve" width="20px" height="20px">
<rect x="86.255" y="10.199" style="fill:#73C1DD;" width="339.491" height="491.602"/>
<rect x="127.103" y="49.976" style="fill:#F2F2F2;" width="257.785" height="341.673"/>
<path style="fill:#FFAD61;" d="M348.185,127.847c0-12.027-9.749-21.775-21.775-21.775H185.592c-12.027,0-21.775,9.749-21.775,21.775
	v201.789h60.972v-16.694c0-6.013,4.874-10.888,10.888-10.888h40.648c6.013,0,10.888,4.874,10.888,10.888v16.695h60.972v-201.79
	H348.185z"/>
<g>
	<path style="fill:#F2F2F2;" d="M276.324,302.053h-40.648c-6.013,0-10.888,4.874-10.888,10.888v16.695h62.424v-16.694
		C287.212,306.929,282.338,302.053,276.324,302.053z"/>
	<path style="fill:#F2F2F2;" d="M303.808,224.074c6.636,0,12.016-5.38,12.016-12.016v-42.848c0-6.636-5.38-12.016-12.016-12.016
		h-95.615c-6.637,0-12.016,5.38-12.016,12.016v42.848c0,6.636,5.38,12.016,12.016,12.016H303.808z"/>
	<circle style="fill:#F2F2F2;" cx="209.502" cy="266.801" r="14.88"/>
	<circle style="fill:#F2F2F2;" cx="302.499" cy="266.801" r="14.88"/>
</g>
<g>
	<path style="fill:#4D3D36;" d="M425.745,0H86.256c-5.632,0-10.199,4.566-10.199,10.199v491.602c0,5.633,4.567,10.199,10.199,10.199
		h339.488c5.632,0,10.199-4.566,10.199-10.199V10.199C435.944,4.566,431.377,0,425.745,0z M415.546,491.602H96.455V20.398h319.089
		v471.203H415.546z"/>
	<path style="fill:#4D3D36;" d="M127.108,401.849h257.785c5.632,0,10.199-4.566,10.199-10.199V49.976
		c0-5.633-4.567-10.199-10.199-10.199H127.108c-5.632,0-10.199,4.566-10.199,10.199v341.673
		C116.909,397.282,121.476,401.849,127.108,401.849z M137.307,60.175h237.386V381.45H137.307V60.175z"/>
	<path style="fill:#4D3D36;" d="M348.185,339.835c5.632,0,10.199-4.566,10.199-10.199V127.848c0-17.631-14.343-31.976-31.976-31.976
		H185.592c-17.631,0-31.976,14.344-31.976,31.976v201.789c0,5.633,4.567,10.199,10.199,10.199h184.369V339.835z M277.014,319.437
		h-42.026v-6.496c0-0.38,0.309-0.688,0.689-0.688h40.648c0.38,0,0.689,0.309,0.689,0.688v6.496H277.014z M337.986,319.437h-40.573
		v-6.496c0-11.627-9.46-21.087-21.088-21.087h-40.648c-11.627,0-21.088,9.46-21.088,21.087v6.496h-40.573V127.848
		c0-6.384,5.193-11.577,11.577-11.577h140.816c6.384,0,11.577,5.193,11.577,11.577V319.437z"/>
	<path style="fill:#4D3D36;" d="M287.938,141.769h3.629c5.632,0,10.199-4.566,10.199-10.199c0-5.633-4.567-10.199-10.199-10.199
		h-3.629c-5.632,0-10.199,4.566-10.199,10.199C277.739,137.203,282.306,141.769,287.938,141.769z"/>
	<path style="fill:#4D3D36;" d="M220.434,141.769h42.099c5.632,0,10.199-4.566,10.199-10.199c0-5.633-4.567-10.199-10.199-10.199
		h-42.099c-5.632,0-10.199,4.566-10.199,10.199C210.235,137.203,214.801,141.769,220.434,141.769z"/>
	<path style="fill:#4D3D36;" d="M326.023,212.059v-42.848c0-12.249-9.966-22.215-22.215-22.215h-95.615
		c-12.249,0-22.215,9.966-22.215,22.215v42.848c0,12.249,9.966,22.215,22.215,22.215h95.615
		C316.058,234.274,326.023,224.308,326.023,212.059z M206.376,212.059v-42.848c0-1.002,0.815-1.816,1.816-1.816h95.615
		c1.002,0,1.816,0.815,1.816,1.816v42.848c0,1.002-0.815,1.816-1.816,1.816h-95.615
		C207.191,213.875,206.376,213.059,206.376,212.059z"/>
	<path style="fill:#4D3D36;" d="M209.502,241.721c-13.829,0-25.079,11.251-25.079,25.079c0,13.829,11.25,25.08,25.079,25.08
		s25.08-11.251,25.08-25.08C234.582,252.972,223.331,241.721,209.502,241.721z M209.502,271.481c-2.58,0-4.68-2.1-4.68-4.681
		s2.1-4.68,4.68-4.68c2.581,0,4.681,2.1,4.681,4.68C214.184,269.38,212.084,271.481,209.502,271.481z"/>
	<path style="fill:#4D3D36;" d="M302.499,241.721c-13.829,0-25.08,11.251-25.08,25.079c0,13.829,11.251,25.08,25.08,25.08
		c13.829,0,25.079-11.251,25.079-25.08C327.578,252.972,316.327,241.721,302.499,241.721z M302.499,271.481
		c-2.581,0-4.681-2.1-4.681-4.681s2.1-4.68,4.681-4.68c2.58,0,4.68,2.1,4.68,4.68C307.179,269.38,305.079,271.481,302.499,271.481z"
		/>
	<path style="fill:#4D3D36;" d="M119.331,479.363h168.287c5.632,0,10.199-4.566,10.199-10.199s-4.567-10.199-10.199-10.199H119.331
		c-5.632,0-10.199,4.566-10.199,10.199S113.699,479.363,119.331,479.363z"/>
	<path style="fill:#4D3D36;" d="M324.335,458.964h-4.08c-5.632,0-10.199,4.566-10.199,10.199s4.567,10.199,10.199,10.199h4.08
		c5.632,0,10.199-4.566,10.199-10.199S329.967,458.964,324.335,458.964z"/>
</g>
<g>
</g>
<g>
</g>
<g>
</g>
<g>
</g>
<g>
</g>
<g>
</g>
<g>
</g>
<g>
</g>
<g>
</g>
<g>
</g>
<g>
</g>
<g>
</g>
<g>
</g>
<g>
</g>
<g>
</g>
</svg>
