<?xml version="1.0" encoding="iso-8859-1"?>
<!-- Generator: Adobe Illustrator 19.0.0, SVG Export Plug-In . SVG Version: 6.00 Build 0)  -->
<svg version="1.1" id="Layer_1" xmlns="http://www.w3.org/2000/svg" xmlns:xlink="http://www.w3.org/1999/xlink" x="0px" y="0px"
	 viewBox="0 0 512 512" style="enable-background:new 0 0 512 512;" xml:space="preserve" width="20px" height="20px">
<circle style="fill:#A5E1EB;" cx="256" cy="256" r="256"/>
<path style="fill:#78BED2;" d="M512,256c0-31.928-5.863-62.483-16.541-90.669l-51.553-51.553L68.094,142.222l37.895,37.895
	l-37.41,51.102l23.65,23.65v88.559l-37.926,26.35l132.844,132.844C209.056,508.726,232.145,512,256,512
	C397.384,512,512,397.384,512,256z"/>
<rect x="407.911" y="135.758" style="fill:#00263F;" width="15.515" height="212.04"/>
<rect x="88.557" y="135.758" style="fill:#4B7689;" width="15.515" height="212.04"/>
<rect x="54.303" y="341.333" style="fill:#175D76;" width="403.394" height="28.444"/>
<rect x="255.431" y="341.333" style="fill:#00263F;" width="202.266" height="28.444"/>
<polygon style="fill:#F1333F;" points="369.778,284.444 369.778,289.185 142.222,289.185 142.222,284.444 113.778,284.444
	113.778,341.333 142.222,341.333 142.222,308.148 369.778,308.148 369.778,341.333 398.222,341.333 398.222,284.444 "/>
<polygon style="fill:#AE283F;" points="369.778,284.444 369.778,289.185 255.426,289.185 255.426,308.148 369.778,308.148
	369.778,341.333 398.222,341.333 398.222,284.444 "/>
<rect x="68.094" y="113.778" style="fill:#175D76;" width="375.811" height="28.444"/>
<rect x="255.431" y="113.778" style="fill:#00263F;" width="188.475" height="28.444"/>
<rect x="113.778" y="142.222" style="fill:#4B7689;" width="284.444" height="113.778"/>
<rect x="255.431" y="142.222" style="fill:#175D76;" width="142.791" height="113.778"/>
<path style="fill:#FFCF35;" d="M120.494,233.158H72.152c-2.36,0-4.274-1.914-4.274-4.274v-76.786c0-2.36,1.914-4.274,4.274-4.274
	h48.342c2.36,0,4.274,1.914,4.274,4.274v76.786C124.768,231.245,122.854,233.158,120.494,233.158z"/>
<path style="fill:#FFB344;" d="M120.494,147.825H96.827v85.333h23.667c2.36,0,4.274-1.914,4.274-4.274v-76.786
	C124.768,149.738,122.854,147.825,120.494,147.825z"/>
<g>
</g>
<g>
</g>
<g>
</g>
<g>
</g>
<g>
</g>
<g>
</g>
<g>
</g>
<g>
</g>
<g>
</g>
<g>
</g>
<g>
</g>
<g>
</g>
<g>
</g>
<g>
</g>
<g>
</g>
</svg>
